<svg xmlns="http://www.w3.org/2000/svg" class="svg-icon" viewBox="0 0 20 20">
    <path d="m 86.125,25.314 c 0.035,0.002 0.07,0.003 0.105,0.003 0.54,0 1.041,-0.292 1.306,-0.769 l 7.277,-13.114 c 0.323,-0.583 0.222,-1.31 -0.25,-1.782 L 90.349,5.438 C 89.878,4.967 89.15,4.864 88.567,5.188 l -13.114,7.277 c -0.507,0.282 -0.806,0.832 -0.765,1.411 L 75.022,18.647 52.512,41.155 39.816,28.459 C 41.993,22.092 40.392,15.038 35.59,10.236 30.848,5.495 23.95,3.845 17.585,5.931 17.562,5.939 17.542,5.951 17.52,5.96 17.497,5.969 17.476,5.98 17.453,5.99 17.287,6.063 17.14,6.16 17.016,6.281 17.009,6.286 17,6.288 16.994,6.294 c -0.009,0.009 -0.011,0.02 -0.019,0.029 -0.123,0.129 -0.221,0.276 -0.291,0.438 -0.01,0.022 -0.017,0.043 -0.026,0.065 -0.059,0.157 -0.092,0.322 -0.096,0.492 -0.001,0.024 0,0.046 10e-4,0.069 0.004,0.142 0.02,0.286 0.067,0.428 0.008,0.023 0.02,0.043 0.029,0.065 0.009,0.023 0.02,0.044 0.03,0.067 0.073,0.165 0.17,0.312 0.29,0.436 0.007,0.007 0.008,0.016 0.015,0.023 l 6.857,6.858 c 0.645,0.644 1,1.499 1,2.408 0,0.908 -0.353,1.761 -0.995,2.403 l -3.439,3.439 c -0.641,0.642 -1.494,0.995 -2.401,0.995 0,0 -10e-4,0 -10e-4,0 -0.909,0 -1.764,-0.356 -2.409,-1 L 8.749,16.652 C 8.742,16.645 8.733,16.643 8.726,16.637 8.602,16.517 8.455,16.42 8.29,16.348 8.267,16.338 8.245,16.327 8.221,16.318 8.198,16.309 8.178,16.296 8.155,16.289 8.014,16.243 7.871,16.226 7.729,16.222 7.705,16.221 7.683,16.22 7.659,16.221 7.489,16.225 7.324,16.258 7.168,16.317 7.145,16.326 7.123,16.334 7.1,16.344 6.939,16.414 6.793,16.511 6.665,16.633 6.656,16.642 6.643,16.644 6.634,16.653 6.627,16.66 6.625,16.669 6.619,16.676 6.5,16.8 6.404,16.946 6.331,17.111 6.321,17.135 6.309,17.156 6.3,17.18 c -0.009,0.023 -0.022,0.042 -0.029,0.066 -2.079,6.369 -0.43,13.268 4.305,18.003 3.39,3.39 7.902,5.189 12.505,5.189 1.915,0 3.843,-0.332 5.715,-0.971 l 8.541,8.542 c -0.196,-0.022 -0.389,-0.058 -0.59,-0.058 -1.419,0 -2.754,0.553 -3.757,1.556 L 6.556,75.943 C 5.553,76.947 5,78.281 5,79.7 c 0,1.419 0.553,2.753 1.556,3.757 l 9.988,9.988 c 1.003,1.002 2.337,1.555 3.757,1.555 1.419,0 2.753,-0.553 3.757,-1.556 L 50.493,67.009 c 1.003,-1.003 1.556,-2.338 1.556,-3.757 0,-0.2 -0.036,-0.394 -0.058,-0.59 l 8.533,8.533 c -2.177,6.371 -0.575,13.427 4.228,18.229 3.381,3.382 7.866,5.19 12.473,5.19 1.844,0 3.709,-0.29 5.53,-0.885 0.024,-0.008 0.043,-0.021 0.066,-0.029 0.023,-0.009 0.044,-0.02 0.067,-0.03 0.166,-0.073 0.313,-0.17 0.437,-0.29 0.007,-0.006 0.016,-0.008 0.022,-0.015 0.009,-0.009 0.011,-0.02 0.019,-0.029 0.122,-0.129 0.22,-0.275 0.29,-0.437 0.01,-0.022 0.018,-0.044 0.026,-0.066 0.059,-0.156 0.092,-0.321 0.096,-0.492 10e-4,-0.024 0,-0.046 -0.001,-0.07 -0.004,-0.142 -0.02,-0.285 -0.067,-0.426 -0.008,-0.023 -0.021,-0.043 -0.029,-0.066 -0.009,-0.023 -0.02,-0.045 -0.03,-0.068 -0.073,-0.166 -0.17,-0.313 -0.29,-0.437 -0.006,-0.006 -0.008,-0.015 -0.014,-0.022 L 76.49,84.395 c -1.328,-1.328 -1.33,-3.487 -0.005,-4.812 l 3.439,-3.439 c 1.326,-1.325 3.484,-1.322 4.812,0.005 l 6.857,6.857 c 0.006,0.006 0.015,0.008 0.022,0.014 0.124,0.12 0.272,0.218 0.437,0.291 0.023,0.01 0.044,0.021 0.067,0.03 0.022,0.009 0.042,0.021 0.065,0.029 0.155,0.051 0.311,0.075 0.466,0.075 0.179,0 0.35,-0.04 0.514,-0.101 0.049,-0.018 0.091,-0.046 0.138,-0.069 0.118,-0.058 0.226,-0.129 0.326,-0.217 0.024,-0.021 0.055,-0.029 0.078,-0.052 0.021,-0.021 0.027,-0.049 0.047,-0.07 0.086,-0.096 0.154,-0.203 0.214,-0.322 0.025,-0.051 0.058,-0.096 0.077,-0.149 0.007,-0.018 0.02,-0.032 0.026,-0.05 C 96.156,76.05 94.506,69.151 89.765,64.41 84.964,59.609 77.909,58.008 71.542,60.184 L 58.845,47.488 81.354,24.979 Z M 30.28,36.724 C 29.869,36.288 29.221,36.123 28.632,36.362 23.138,38.592 16.881,37.327 12.69,33.136 9.367,29.813 7.882,25.208 8.538,20.668 l 4.955,4.955 c 1.208,1.208 2.813,1.874 4.52,1.875 10e-4,0 0.002,0 0.003,0 1.705,0 3.309,-0.664 4.514,-1.87 l 3.439,-3.438 c 1.207,-1.207 1.871,-2.811 1.87,-4.518 -10e-4,-1.706 -0.667,-3.312 -1.876,-4.52 L 21.007,8.195 c 4.538,-0.659 9.143,0.827 12.47,4.154 4.181,4.181 5.449,10.419 3.237,15.901 -0.014,0.032 -0.02,0.065 -0.031,0.099 -0.049,0.14 -0.076,0.281 -0.082,0.423 -10e-4,0.031 -0.008,0.061 -0.008,0.092 0.002,0.167 0.038,0.33 0.094,0.485 0.008,0.023 0.012,0.045 0.021,0.068 0.073,0.175 0.179,0.336 0.315,0.473 10e-4,10e-4 10e-4,0.002 0.002,0.004 l 0.003,0.003 c 0.001,0.001 0.002,0.002 0.004,0.004 l 13.367,13.367 -2.945,2.944 c -0.846,-0.63 -1.856,-0.986 -2.928,-0.986 -1.316,0 -2.555,0.514 -3.492,1.451 l -0.401,0.401 z m 18.1,28.172 -26.436,26.435 c -0.879,0.878 -2.41,0.877 -3.288,0 L 8.668,81.343 c -0.439,-0.439 -0.68,-1.023 -0.68,-1.644 0,-0.621 0.242,-1.204 0.68,-1.644 L 35.104,51.62 c 0.439,-0.439 1.023,-0.681 1.644,-0.681 0.618,0 1.2,0.241 1.638,0.676 l 9.993,9.993 c 0.439,0.439 0.681,1.022 0.681,1.643 0,0.622 -0.241,1.205 -0.68,1.645 z m 2.829,-8.044 -1.675,1.684 -8.06,-8.061 0.214,-0.215 c 0.003,-0.003 0.007,-0.004 0.01,-0.006 0.003,-0.003 0.004,-0.007 0.007,-0.01 l 1.449,-1.458 c 0.738,-0.738 2.013,-0.737 2.75,0 l 0.544,0.544 c 0,0 0,0.001 10e-4,0.001 l 4.22,4.22 c 0,0 0,0 0,0 l 0.546,0.546 c 0.369,0.369 0.572,0.857 0.572,1.375 -0.002,0.519 -0.205,1.007 -0.578,1.38 z m 18.888,6.115 c 0.002,0.002 0.004,0.004 0.006,0.006 l 0.003,0.003 c 0.001,10e-4 0.002,10e-4 0.003,0.002 0.137,0.135 0.299,0.242 0.474,0.315 0.022,0.01 0.045,0.013 0.068,0.021 0.154,0.056 0.316,0.091 0.483,0.094 0.01,0 0.019,0.006 0.029,0.006 0.023,0 0.046,-0.012 0.069,-0.013 0.14,-0.007 0.281,-0.033 0.419,-0.082 0.033,-0.012 0.066,-0.017 0.099,-0.031 5.482,-2.211 11.721,-0.943 15.902,3.237 3.327,3.327 4.814,7.933 4.155,12.47 L 86.85,74.038 c -2.492,-2.492 -6.547,-2.496 -9.038,-0.005 l -3.439,3.439 c -2.49,2.49 -2.488,6.545 0.005,9.038 l 4.955,4.954 C 74.793,92.12 70.189,90.635 66.865,87.312 62.675,83.121 61.408,76.864 63.639,71.37 63.878,70.782 63.713,70.133 63.277,69.723 L 52.921,59.366 53.326,58.961 c 0.933,-0.933 1.447,-2.172 1.447,-3.488 0,-1.071 -0.356,-2.082 -0.986,-2.927 l 2.945,-2.945 z M 80.802,21.952 c -0.017,0 -0.034,0 -0.051,10e-4 -0.417,0 -0.795,0.177 -1.064,0.468 L 51.724,50.383 49.617,48.276 77.615,20.279 c 0.002,-0.002 0.003,-0.006 0.006,-0.008 0.132,-0.135 0.238,-0.293 0.311,-0.469 0.004,-0.01 0.01,-0.02 0.014,-0.031 0.063,-0.16 0.096,-0.332 0.1,-0.512 10e-4,-0.021 0.002,-0.042 0.002,-0.063 0,-0.025 0.004,-0.048 0.002,-0.073 l -0.316,-4.507 11.297,-6.268 2.621,2.621 -6.268,11.297 -4.507,-0.315 c -0.025,-0.003 -0.05,0.002 -0.075,0.001 z"></path>
</svg>